<svg width="265" height="265" viewBox="0 0 265 265" fill="none" xmlns="http://www.w3.org/2000/svg">
  <path
    d="M217.315 0H47.6707C21.4411 0 0.177734 21.2633 0.177734 47.493V217.137C0.177734 243.367 21.4411 264.63 47.6707 264.63H217.315C243.544 264.63 264.808 243.367 264.808 217.137V47.493C264.808 21.2633 243.544 0 217.315 0Z"
    fill="#4D53E8" />
  <path
    d="M227.063 131.936C226.733 131.936 226.403 131.936 226.073 131.96C220.972 132.266 205.671 133.22 205.671 133.22L205.72 107.193C205.72 66.7325 172.929 33.929 132.469 33.9168C92.0087 33.929 59.2174 66.7325 59.2174 107.193L59.2663 133.22C59.2663 133.22 43.9654 132.266 38.8651 131.96C38.5348 131.936 38.2046 131.936 37.8743 131.936C28.2975 131.936 20.543 139.703 20.543 149.267C20.543 156.789 25.3498 163.186 32.0401 165.596C38.8283 168.042 59.1441 175.454 59.1441 175.454L58.7893 190.84C58.7893 204.331 69.7238 215.278 83.2268 215.278C89.3056 215.278 94.8585 213.052 99.1394 209.383C104.961 221.968 117.706 230.689 132.481 230.689C147.256 230.689 159.989 221.956 165.823 209.383C170.104 213.052 175.657 215.278 181.735 215.278C195.226 215.278 206.173 204.343 206.173 190.84L205.818 175.454C205.818 175.454 226.134 168.042 232.922 165.596C239.612 163.186 244.419 156.789 244.419 149.267C244.419 139.69 236.652 131.936 227.088 131.936H227.063ZM97.8429 147.225V132.645C97.8429 128.707 101.035 125.515 104.974 125.515C108.912 125.515 112.104 128.707 112.104 132.645V147.225C112.104 151.163 108.912 154.355 104.974 154.355C101.035 154.355 97.8429 151.163 97.8429 147.225ZM157.873 171.467C151.672 179.258 142.413 183.722 132.469 183.722C122.525 183.722 113.254 179.245 107.053 171.442C104.851 168.678 105.316 164.654 108.08 162.465C110.844 160.263 114.868 160.728 117.058 163.492C120.813 168.225 126.427 170.941 132.469 170.941C138.511 170.941 144.113 168.225 147.868 163.504C150.069 160.74 154.081 160.287 156.845 162.477C159.609 164.678 160.062 168.69 157.873 171.454V171.467ZM159.915 154.355C155.365 154.355 151.684 150.674 151.684 146.124C151.684 141.574 155.365 137.892 159.915 137.892C164.465 137.892 168.147 141.574 168.147 146.124C168.147 150.674 164.465 154.355 159.915 154.355Z"
    fill="white" />
</svg>
